<svg t="1698488761816" class="icon" viewBox="0 0 1024 1024" version="1.1" xmlns="http://www.w3.org/2000/svg" p-id="10927" width="200" height="200"><path d="M912.896 56.746667a121.6 121.6 0 0 0-167.552 38.698666l-114.645333 183.466667-78.762667-49.194667a64 64 0 0 0-88.192 20.352L402.773333 347.733333a64 64 0 0 0 14.208 83.797334C304.426667 540.458667 165.546667 598.272 108.714667 618.666667c-42.624 15.274667-51.328 74.24-11.776 99.968l415.744 269.909333c19.029333 12.373333 44.842667 11.093333 62.506666-5.376a974.08 974.08 0 0 0 111.445334-125.568c38.741333-51.968 79.616-118.016 105.301333-191.701333a64 64 0 0 0 81.109333-24.192l61.056-97.706667a64 64 0 0 0-20.352-88.192l-76.8-48 114.645334-183.466667a121.6 121.6 0 0 0-38.698667-167.552z m-95.189333 83.925333a36.266667 36.266667 0 1 1 61.525333 38.485333L764.586667 362.538667l-61.525334-38.485334 114.602667-183.381333z m-5.674667 437.717333l-325.674667-203.52 38.442667-61.482666 325.674667 203.52-38.442667 61.482666z m-321.408-99.754666l226.474667 141.397333c-20.778667 68.992-59.477333 133.717333-98.858667 186.581333a918.528 918.528 0 0 1-82.048 95.445334l-58.666667-38.058667c44.373333-48.128 101.888-192.298667 101.888-192.298667s-97.749333 101.504-191.402666 134.144L304.042667 751.36l39.296 25.301333c63.36-44.629333 104.149333-143.445333 104.149333-143.445333s-123.178667 81.877333-189.866667 87.978667l-66.645333-43.264c78.037333-33.408 199.253333-96.64 299.648-199.296zM151.637333 435.925333a79.701333 79.701333 0 1 0 0-159.402666 79.701333 79.701333 0 0 0 0 159.402666zM333.141333 211.072a55.850667 55.850667 0 1 1-111.701333 0 55.850667 55.850667 0 0 1 111.701333 0zM151.637333 139.136a44.032 44.032 0 1 0 0-88.021333 44.032 44.032 0 0 0 0 88.021333z" fill="#ffffff" p-id="10928"></path></svg>
