<svg t="1692074228567" class="icon" viewBox="0 0 1024 1024" version="1.1" xmlns="http://www.w3.org/2000/svg" p-id="18143" width="200" height="200"><path d="M663.51 696.8c-4.11 4.63-8.35 9.01-12.7 13.17-15.45 14.78-32.35 26.59-50.44 35.2-22.1 10.51-45.4 15.84-69.26 15.84-23.86 0-47.16-5.33-69.26-15.84-23.17-11.03-44.41-27.3-63.14-48.36-20.22-22.75-36.26-49.66-47.65-79.97-12.28-32.66-18.51-67.66-18.51-104.02s6.23-71.36 18.51-104.02c11.4-30.31 27.43-57.21 47.65-79.97 18.73-21.07 39.97-37.34 63.14-48.36 22.1-10.51 45.4-15.84 69.26-15.84 23.86 0 47.16 5.33 69.26 15.84 18.09 8.61 34.99 20.43 50.45 35.21 4.34 4.15 8.58 8.53 12.69 13.15 4.12 4.64 8.06 9.45 11.83 14.43 5.12 6.77 13.13 10.71 21.61 10.71h165.8c19.53 0 32.78-20.02 24.96-37.92-0.05-0.12-0.11-0.25-0.16-0.37C822.82 167.81 687.53 66.06 531.11 66.06 311.79 66.06 134 266.08 134 512.81s177.79 446.75 397.11 446.75c156.41 0 291.7-101.74 356.44-249.6 0.06-0.13 0.11-0.26 0.17-0.39 7.82-17.9-5.44-37.92-24.96-37.92h-165.8c-8.48 0-16.5 3.95-21.61 10.71-3.78 4.99-7.72 9.8-11.84 14.44z" fill="#cdcdcd" p-id="18144"></path></svg>
