<svg t="1694969372588" class="icon" viewBox="0 0 1024 1024" version="1.1" xmlns="http://www.w3.org/2000/svg" p-id="5186" width="200" height="200"><path d="M362.666667 240.213333V128h-85.333334v112.213333a170.666667 170.666667 0 0 0 0 330.24V896h85.333334V570.453333a170.666667 170.666667 0 0 0 0-330.24zM320 490.666667a85.333333 85.333333 0 1 1 85.333333-85.333334 85.333333 85.333333 0 0 1-85.333333 85.333334z m554.666667 149.333333a170.666667 170.666667 0 0 0-128-165.12V128h-85.333334v346.88a170.666667 170.666667 0 0 0 0 330.24V896h85.333334v-90.88A170.666667 170.666667 0 0 0 874.666667 640z m-170.666667 85.333333a85.333333 85.333333 0 1 1 85.333333-85.333333 85.333333 85.333333 0 0 1-85.333333 85.333333z" p-id="5187" fill="#cdcdcd"></path></svg>
