<svg t="1691865487397" class="icon" viewBox="0 0 1024 1024" version="1.1" xmlns="http://www.w3.org/2000/svg" p-id="22752" width="200" height="200"><path d="M640 90.08V128H310.88V90.08H640M662.72 32H288a34.72 34.72 0 0 0-34.72 34.88v84A34.72 34.72 0 0 0 288 185.6h374.88a34.88 34.88 0 0 0 34.88-34.72V66.88A35.04 35.04 0 0 0 662.72 32z m22.24 360.48H265.28a28.96 28.96 0 1 1 0-57.92H684.8a28.96 28.96 0 0 1 0 57.92z m0 184.8H265.28a29.12 29.12 0 0 1 0-58.08H684.8a29.12 29.12 0 0 1 0 58.08zM510.88 764.16H265.28a29.12 29.12 0 0 1 0-58.08h245.44a29.12 29.12 0 0 1 0 58.08z" fill="#ffffff" p-id="22753"></path><path d="M817.44 879.04v35.04a19.68 19.68 0 0 1-19.84 19.84H152.96a19.84 19.84 0 0 1-20-19.84V154.88a20 20 0 0 1 20-19.84h99.84V76.96h444.8v58.08h99.84a19.84 19.84 0 0 1 19.84 19.84v270.4a28.96 28.96 0 0 0 29.12 28.96 28.96 28.96 0 0 0 28.96-28.96V131.68a54.72 54.72 0 0 0-54.72-54.72H129.6a54.72 54.72 0 0 0-54.56 54.72v805.6A54.72 54.72 0 0 0 129.6 992h691.2a54.72 54.72 0 0 0 54.72-54.72v-58.24a29.12 29.12 0 0 0-29.12-29.12 28.96 28.96 0 0 0-28.96 29.12z" fill="#ffffff" p-id="22754"></path><path d="M728.16 817.76a28.48 28.48 0 0 1-20.48-8.48l-98.88-98.72a29.12 29.12 0 1 1 41.12-41.12l78.24 78.24 176-176a29.12 29.12 0 1 1 41.12 41.12L748.64 809.28a28.16 28.16 0 0 1-20.48 8.48z" fill="#ffffff" p-id="22755"></path></svg>
