<svg t="1691865934803" class="icon" viewBox="0 0 1024 1024" version="1.1" xmlns="http://www.w3.org/2000/svg" p-id="35369" width="200" height="200"><path d="M805.279 271.936c54.873 0 99.687-44.814 99.687-99.808 0-54.995-44.688-99.562-99.687-99.562-54.995 0-99.683 44.692-99.683 99.687s44.688 99.683 99.683 99.683z m0-163.991c35.384 0 64.181 28.801 64.307 64.307 0 35.502-28.923 64.303-64.307 64.303-35.502 0-64.303-28.923-64.303-64.303-0.001-35.506 28.922-64.307 64.303-64.307zM1014.461 469.076c-2.856-12.044-14.774-33.023-64.057-38.484-6.704-0.744-13.035-1.364-19.245-1.988l-0.741-0.121c-44.322-4.468-68.031-7.576-80.199-25.326-14.896-21.725-32.772-50.899-40.096-63.19 1.738-27.064-29.919-65.92-79.454-97.2-34.387-21.724-70.387-32.776-107.007-32.776-21.356 0-43.203 3.723-65.179 11.173-41.339 13.907-157.162 66.167-185.716 107.259-12.91 18.497-8.815 32.897-5.214 39.726 7.198 13.782 23.337 21.353 45.56 21.353 23.463 0 50.774-8.689 74.983-23.71 35.132-21.851 75.106-36.499 99.562-36.499 9.312 0 13.16 2.111 13.906 3.229 0.248 1.487 1.24 14.769-23.835 52.884-17.877 27.312-41.092 54.747-55 68.65-25.447 25.326-50.772 69.149-47.917 100.431 0.499 5.338 1.738 10.179 3.723 14.653-10.674 11.791-26.939 30.039-45.435 52.263-3.974 4.714-17.63 12.784-63.684 12.784-16.511 0-33.893-0.992-50.777-1.863h-0.122c-14.899-0.74-30.293-1.613-43.328-1.613-14.4 0-24.828 0.993-32.771 3.105-24.208 6.455-39.107 26.689-38.856 52.635 0.247 23.71 14.275 51.272 40.72 57.726 23.957 5.958 108.251 15.146 171.19 15.146 30.045 0 52.39-2.11 66.665-6.206 23.835-6.828 49.533-31.905 76.472-74.361 11.051-17.505 19.988-34.141 25.82-45.687 12.169 6.583 22.471 12.29 31.411 17.631 35.132 20.859 40.095 29.918 40.593 31.158 2.358 12.789-1.738 40.593-10.425 72.749-9.435 34.635-21.977 66.167-34.515 86.652-18.743 30.536-22.842 66.042-10.301 88.511 7.445 13.282 20.109 20.859 34.757 20.859 9.066 0 18.622-2.857 28.801-8.321 47.051-26.939 80.693-92.359 110.366-150.089l0.248-0.495c2.232-4.344 4.593-8.813 6.951-13.282 14.153-27.312 30.292-58.102 36.87-85.907 11.047-46.679-9.186-69.148-28.055-79.827-30.666-17.253-94.596-53.257-102.791-87.892-1.985-8.316-0.374-15.891 5.092-23.961 9.806-14.4 22.466-31.653 38.855-52.884 11.792 21.352 33.764 56.486 59.463 75.479 15.02 11.047 39.726 16.759 73.49 16.759 46.805 0 102.792-11.298 124.768-25.201 19.362-12.29 28.302-29.048 24.454-45.932z m-43.701 15.891c-14.769 9.309-63.184 19.736-105.889 19.736-24.954 0-44.074-3.597-52.516-9.807-23.584-17.504-45.187-55.739-54.003-72.746l-23.591-35.312c-19.926 25.073-48.591 61.991-66.285 87.451v-0.121l-4.594 6.7c-11.05 16.391-14.4 33.894-10.18 52.017 11.791 49.781 82.18 89.383 119.922 110.613 27.805 15.641 7.077 60.953-22.968 118.431-2.358 4.467-4.715 9.062-7.077 13.529l-0.247 0.499c-27.437 53.378-58.47 113.839-96.46 135.563-4.22 2.359-8.068 3.723-10.799 3.723-1.239 0-2.357 0-3.848-2.731-6.825-12.037-0.499-36.245 9.56-52.635 14.401-23.585 28.551-58.719 38.73-96.457 4.845-18.127 15.644-62.818 10.803-88.39-2.483-13.409-14.279-26.57-37.988-42.583-17.708-11.95-82.202-46.016-82.202-46.016l-19.596 33.353c-5.34 10.305-13.283 24.953-22.843 40.099-29.049 45.807-47.918 56.858-56.486 59.34-7.571 2.232-23.584 4.841-56.854 4.841-62.322 0-142.764-9.186-162.626-14.153-7.329-1.861-13.66-12.785-13.781-23.833 0-9.809 4.221-15.894 12.663-18.125 4.715-1.244 12.664-1.863 23.584-1.863 12.044 0 26.318 0.745 41.344 1.617 17.378 0.866 35.254 1.859 52.884 1.859 32.398 0 72-2.856 90.869-25.572 13.272-15.905 22.857-26.861 38.742-44.598 7.411-8.275 21.307-26.082 12.53-44.165-0.745-0.62-1.239-2.111-1.365-4.094-1.613-16.76 16.014-50.529 37.616-72.128 15.892-15.892 40.594-45.187 60.083-74.861 26.817-40.966 34.886-68.65 25.577-87.392-5.218-10.552-17.508-23.094-45.686-23.094-31.41 0-76.597 16.017-118.184 41.837-18.747 11.546-39.354 18.25-56.359 18.25-7.203 0-11.298-1.24-13.162-2.111 0.373-0.744 0.871-1.862 1.864-3.228 9.062-13.035 35.379-31.532 74.236-52.138 31.531-16.637 69.273-33.517 93.728-41.713 18.371-6.206 36.498-9.312 53.877-9.312 29.673 0 59.341 9.187 88.018 27.315 27.683 17.505 43.202 33.27 51.271 43.45 8.689 10.799 10.925 17.75 11.545 20.108l15.641 39.603c11.796 18.994 21.976 35.007 30.539 47.423 21.976 32.152 58.969 35.879 105.894 40.594h0.373c6.205 0.623 12.538 1.243 19.242 1.989 22.967 2.604 31.531 8.81 33.147 11.046-0.498 1.242-2.734 4.465-8.693 8.192z" fill="#ffffff" p-id="35370"></path><path d="M201.501 433.875H353.71c9.227 0 16.706-7.479 16.706-16.706 0-9.226-7.479-16.706-16.706-16.706H201.501c-9.227 0-16.706 7.48-16.706 16.706-0.001 9.227 7.479 16.706 16.706 16.706zM105.906 519.934H295.24c9.227 0 16.706-7.479 16.706-16.706 0-9.226-7.479-16.706-16.706-16.706H105.906c-9.227 0-16.706 7.48-16.706 16.706 0 9.227 7.479 16.706 16.706 16.706zM234.913 589.288c0-9.227-7.479-16.706-16.705-16.706H28.873c-9.226 0-16.706 7.479-16.706 16.706 0 9.226 7.48 16.706 16.706 16.706h189.335c9.226 0 16.705-7.48 16.705-16.706z" fill="#ffffff" p-id="35371"></path></svg>
