<svg t="1691864708856" class="icon" viewBox="0 0 1024 1024" version="1.1" xmlns="http://www.w3.org/2000/svg" p-id="18598" width="200" height="200"><path d="M352.146965 649.336456a223.794249 159.853035 90 1 0 319.70607 0 223.794249 159.853035 90 1 0-319.70607 0Z" fill="#ffffff" p-id="18599"></path><path d="M37.364368 644.476924a15.985304 15.985304 0 0 0 22.12366 23.018837c72.477366-69.440158 172.257631-101.826383 268.137481-88.047052a334.316638 334.316638 0 0 0-6.458062 95.592115c-24.681309 5.722739-49.778235 12.148831-73.532396 23.338543-22.539278 10.5503-53.007266 30.052371-70.335336 62.822243-17.679746 33.441255-17.232157 72.70116-16.88048 104.224179l1.534589 142.397084a15.985304 15.985304 0 0 0 15.985303 15.82545h0.159853a15.985304 15.985304 0 0 0 15.825451-16.145156l-1.534589-142.429055c-0.319706-29.380988-0.735324-62.66239 13.17189-88.910258 13.203861-24.969044 37.533493-40.346906 55.628856-48.851087 19.981629-9.367388 42.073319-15.24998 64.069096-20.429218 19.661923 113.367773 95.815909 198.217764 186.740316 198.217763s167.078392-84.849991 186.740316-198.217763c21.995778 5.179238 44.119438 11.06183 64.101067 20.461188 18.063393 8.472211 42.393025 23.850073 55.596885 48.819117 13.907214 26.31181 13.523567 59.561241 13.17189 88.910258l-1.534589 142.429055a15.985304 15.985304 0 0 0 15.825451 16.145156h0.159853a15.985304 15.985304 0 0 0 15.985303-15.82545l1.534589-142.397084c0.319706-31.491048 0.799265-70.718983-16.848509-104.192208-17.36004-32.801843-47.828028-52.271942-70.335336-62.854214-23.786132-11.189712-48.883058-17.615804-73.532396-23.338543a334.316638 334.316638 0 0 0-6.490033-95.592115c95.911821-13.779332 195.660115 18.606893 268.137481 88.079023a15.889392 15.889392 0 0 0 22.603219-0.479559 15.985304 15.985304 0 0 0-0.479559-22.60322c-80.470018-77.113104-191.887583-112.888213-298.509558-96.231527a290.964495 290.964495 0 0 0-15.857421-39.068082c124.749309-20.812865 236.102933-109.56327 286.104962-230.6999a15.985304 15.985304 0 1 0-29.540841-12.212772c-47.444381 114.902362-154.673797 198.601411-273.444602 213.755479-2.65356-3.964355-5.24318-7.992652-8.024622-11.701242 74.299691-46.996792 128.457899-122.127719 145.977792-204.771738 18.766746-88.654493-4.475885-184.694197-62.214801-256.915798a16.017274 16.017274 0 0 0-25.001015 19.949658c51.824354 64.836391 72.765102 150.965206 55.948562 230.348224-16.081215 75.930192-66.754627 144.890791-136.130845 187.123963a180.218312 180.218312 0 0 0-56.012503-38.492611A95.464233 95.464233 0 0 0 607.911821 329.598415c0-20.908777-6.937622-40.155082-18.351128-55.948562a102.945355 102.945355 0 0 0 12.948095-25.001015c13.939185-41.146171 0.287735-90.189082-32.450166-116.628774a15.985304 15.985304 0 1 0-20.109511 24.873132c22.347454 18.031422 31.906666 53.071208 22.283513 81.525048a72.605249 72.605249 0 0 1-5.626827 12.532478 95.208468 95.208468 0 0 0-109.211594 0 72.445396 72.445396 0 0 1-5.626827-12.564448c-9.655123-28.42187-0.095912-63.461655 22.251543-81.493078a15.985304 15.985304 0 1 0-20.077541-24.873132c-32.769872 26.439692-46.421321 75.514574-32.450166 116.596804 3.005237 9.015711 7.672946 17.264128 12.948095 25.032985a95.080585 95.080585 0 0 0-18.351128 55.948562c0 31.043459 15.026185 58.410299 37.981081 75.930192a180.218312 180.218312 0 0 0-56.012503 38.492611c-69.376217-42.201201-120.049629-111.193771-136.098875-187.123963-16.84851-79.383017 4.092238-165.511833 55.916592-230.348224a15.985304 15.985304 0 1 0-25.001015-19.949658C235.166514 78.852945 211.891912 174.860677 230.658658 263.515171c17.519893 82.644019 71.678101 157.742975 145.977792 204.771738-2.781443 3.70859-5.371062 7.736887-7.992652 11.701242-118.802776-15.154068-226.032192-98.853117-273.476572-213.755479a15.985304 15.985304 0 0 0-29.540841 12.212772c50.002029 121.13663 161.355654 209.887035 286.136933 230.6999a290.932524 290.932524 0 0 0-15.889392 39.068082c-106.781827-16.656686-218.03954 19.118423-298.509558 96.231527zM512 297.595838c17.647775 0 31.970607 14.386773 31.970607 31.970607s-14.322832 31.970607-31.970607 31.970607a31.970607 31.970607 0 0 1 0-63.941214z m0 159.853035c69.312276 0 127.882428 87.855228 127.882428 191.823642s-58.570152 191.823642-127.882428 191.823642-127.882428-87.823257-127.882428-191.823642 58.570152-191.823642 127.882428-191.823642z" fill="#ffffff" p-id="18600"></path></svg>
