<svg t="1691691718939" class="icon" viewBox="0 0 1024 1024" version="1.1" xmlns="http://www.w3.org/2000/svg" p-id="4035" width="200" height="200"><path d="M298.72 643.568h85.168v85.568H298.72v81.296h127.952V896H213.424V729.136h-0.136V643.568h0.136v-178.64c-73.648-18.952-128.08-85.992-128.08-165.784C85.344 204.624 161.728 128 255.944 128s170.6 76.624 170.6 171.144c0 79.696-54.304 146.672-127.816 165.72v178.704z m-42.784-258.856c47.112 0 85.296-38.312 85.296-85.568S303.04 213.576 255.928 213.576s-85.304 38.312-85.304 85.568 38.192 85.568 85.304 85.568zM520.536 256h409.6c4.712 0 8.536 3.824 8.536 8.536V460.8c0 4.712-3.824 8.536-8.536 8.536h-409.6A8.536 8.536 0 0 1 512 460.8V264.536c0-4.712 3.824-8.536 8.536-8.536z m0 298.664h409.6c4.712 0 8.536 3.824 8.536 8.536v196.264c0 4.712-3.824 8.536-8.536 8.536h-409.6A8.536 8.536 0 0 1 512 759.464V563.2c0-4.712 3.824-8.536 8.536-8.536z" p-id="4036" fill="#cdcdcd"></path></svg>
